<svg xmlns="http://www.w3.org/2000/svg" xmlns:xlink="http://www.w3.org/1999/xlink" version="1.0" x="0px" y="0px" viewBox="0 0 144 180" enable-background="new 0 0 144 144" xml:space="preserve"><g><path d="M45.5,48c0.3,0,0.5-0.2,0.5-0.5v-2c0-0.3-0.2-0.5-0.5-0.5c-0.3,0-0.5,0.2-0.5,0.5v2C44.9,47.7,45.2,48,45.5,48z"/><path d="M68,45h3c0.6,0,1-0.5,1-1v-4c0-0.6-0.5-1-1-1h-3c-0.6,0-1,0.5-1,1v4C67,44.5,67.4,45,68,45z M68,40h3l0,0l0,4l-3,0L68,40z"/><path d="M110,35.9h-3.1c-0.6,0-1,0.4-1,1v3.2c0,0.6,0.4,1,1,1h3.1c0.6,0,1-0.4,1-1v-3.2C111,36.4,110.6,35.9,110,35.9z M110,40.1   h-3.1v-3.2h3.1V40.1z"/><path d="M121,42.9h-6c-0.6,0-1,0.4-1,1v5c0,0.6,0.4,1,1,1h6c0.6,0,1-0.4,1-1v-5C122,43.4,121.6,42.9,121,42.9z M121,49h-6v-5h6V49z   "/><path d="M94.5,46h4c0.3,0,0.5-0.2,0.5-0.5S98.8,45,98.5,45h-4c-0.3,0-0.5,0.2-0.5,0.5S94.2,46,94.5,46z"/><path d="M94.5,48h4c0.3,0,0.5-0.2,0.5-0.5S98.8,47,98.5,47h-4c-0.3,0-0.5,0.2-0.5,0.5S94.2,48,94.5,48z"/><path d="M94.5,50h4c0.3,0,0.5-0.2,0.5-0.5c0-0.3-0.2-0.5-0.5-0.5h-4c-0.3,0-0.5,0.2-0.5,0.5C94,49.7,94.2,50,94.5,50z"/><path d="M93,57.9h-3c-0.6,0-1,0.4-1,1v1c0,0.6,0.4,1,1,1h3c0.6,0,1-0.4,1-1v-1C94,58.4,93.6,57.9,93,57.9z M93,60h-3v-1h3V60z"/><path d="M68,64.5c0.8,0,1.5-0.7,1.5-1.5c0-0.8-0.7-1.5-1.5-1.5c-0.8,0-1.5,0.7-1.5,1.5C66.5,63.8,67.2,64.5,68,64.5z M68,62.5   c0.3,0,0.5,0.2,0.5,0.5c0,0.3-0.2,0.5-0.5,0.5c-0.3,0-0.5-0.2-0.5-0.5C67.5,62.7,67.7,62.5,68,62.5z"/><path d="M77,103.7l0.7-0.8c0.2-0.2,0.2-0.5-0.1-0.7c-0.2-0.2-0.5-0.2-0.7,0.1l-0.7,0.8c-0.2,0.2-0.2,0.5,0.1,0.7   C76.5,103.9,76.8,103.9,77,103.7z"/><path d="M81.2,107.3c0.2,0.2,0.5,0.2,0.7-0.1s0.2-0.5-0.1-0.7l-0.7-0.6c-0.2-0.2-0.5-0.2-0.7,0.1c-0.2,0.2-0.2,0.5,0.1,0.7   L81.2,107.3z"/><path d="M113.5,110h1.1c0.3,0,0.5-0.2,0.5-0.5c0-0.3-0.2-0.5-0.5-0.5h-1.1c-0.3,0-0.5,0.2-0.5,0.5C113,109.8,113.2,110,113.5,110z"/><path d="M114,114c-0.3,0-0.5,0.2-0.5,0.5v1c0,0.3,0.2,0.5,0.5,0.5c0.3,0,0.5-0.2,0.5-0.5v-1C114.5,114.3,114.3,114,114,114z"/><path d="M125,116h-3.4l-0.4-1.7c-0.1-0.5-0.4-0.9-0.8-1.2l-1.5-1l-0.6-5.4c-0.1-0.7-0.7-1.3-1.4-1.3h-5.5c-0.9,0-1.6,0.6-1.7,1.5   l-0.7,5.2l-1.5,1.1c-0.4,0.3-0.7,0.7-0.8,1.2l-0.3,1.6h-0.8l-0.3-1.6c-0.1-0.5-0.4-0.9-0.8-1.2l-1.5-1.1l-0.7-5.2   c-0.1-0.9-0.8-1.5-1.7-1.5h-5.5c-0.7,0-1.3,0.5-1.4,1.3l-0.6,5.4l-1.5,1c-0.4,0.3-0.7,0.7-0.8,1.2l-0.4,1.7H87c-0.6,0-1,0.4-1,1   c0,0.6,0.4,1,1,1h3h0.7H103h2.3h0.7h0.7h14.7h0.7h3c0.6,0,1-0.4,1-1C126,116.5,125.6,116,125,116z M94.7,106.9   c0-0.2,0.2-0.4,0.4-0.4h5.5c0.4,0,0.7,0.3,0.7,0.6l0.6,4.4h-0.8h-6.4h-0.5L94.7,106.9z M103,116c-0.6,0-1,0.4-1,1H91.3l0.5-2.5   c0-0.2,0.2-0.4,0.4-0.6l2-1.3c0.1-0.1,0.3-0.1,0.5-0.1h6.4c0.4,0,0.8,0.1,1.2,0.4l1.7,1.2c0.2,0.1,0.3,0.3,0.4,0.6l0.3,1.4H103z    M110.8,107.1c0-0.4,0.4-0.6,0.7-0.6h5.5c0.2,0,0.4,0.2,0.4,0.4l0.5,4.6h-0.5H111h-0.8L110.8,107.1z M107.3,117l0.5-2.4   c0-0.2,0.2-0.4,0.4-0.6l1.7-1.2c0.3-0.2,0.8-0.4,1.2-0.4h6.4c0.2,0,0.3,0,0.5,0.1l2,1.3c0.2,0.1,0.3,0.3,0.4,0.6l0.5,2.5H107.3z"/><path d="M97.5,110h1.1c0.3,0,0.5-0.2,0.5-0.5c0-0.3-0.2-0.5-0.5-0.5h-1.1c-0.3,0-0.5,0.2-0.5,0.5C97,109.8,97.2,110,97.5,110z"/><path d="M98,114c-0.3,0-0.5,0.2-0.5,0.5v1c0,0.3,0.2,0.5,0.5,0.5c0.3,0,0.5-0.2,0.5-0.5v-1C98.5,114.3,98.3,114,98,114z"/><path d="M64.5,110h1.1c0.3,0,0.5-0.2,0.5-0.5c0-0.3-0.2-0.5-0.5-0.5h-1.1c-0.3,0-0.5,0.2-0.5,0.5C64,109.8,64.2,110,64.5,110z"/><path d="M65,114c-0.3,0-0.5,0.2-0.5,0.5v1c0,0.3,0.2,0.5,0.5,0.5c0.3,0,0.5-0.2,0.5-0.5v-1C65.5,114.3,65.3,114,65,114z"/><path d="M66.5,89.5c1.7,0,3-1.3,3-3c0-1.7-1.3-3-3-3c-1.7,0-3,1.3-3,3C63.5,88.2,64.8,89.5,66.5,89.5z M66.5,84.5c1.1,0,2,0.9,2,2   c0,1.1-0.9,2-2,2c-1.1,0-2-0.9-2-2C64.5,85.4,65.4,84.5,66.5,84.5z"/><path d="M112.5,89.5c1.7,0,3-1.3,3-3c0-1.7-1.3-3-3-3c-1.7,0-3,1.3-3,3C109.5,88.2,110.9,89.5,112.5,89.5z M112.5,84.5   c1.1,0,2,0.9,2,2c0,1.1-0.9,2-2,2c-1.1,0-2-0.9-2-2C110.5,85.4,111.4,84.5,112.5,84.5z"/><path d="M111,61.5c-0.8,0-1.5,0.7-1.5,1.5c0,0.8,0.7,1.5,1.5,1.5s1.5-0.7,1.5-1.5C112.5,62.2,111.9,61.5,111,61.5z M111,63.5   c-0.3,0-0.5-0.2-0.5-0.5c0-0.3,0.2-0.5,0.5-0.5c0.3,0,0.5,0.2,0.5,0.5C111.5,63.3,111.3,63.5,111,63.5z"/><path d="M99.5,83.5c-1.7,0-3,1.3-3,3c0,1.7,1.3,3,3,3c1.7,0,3-1.3,3-3C102.5,84.9,101.2,83.5,99.5,83.5z M99.5,88.5   c-1.1,0-2-0.9-2-2c0-1.1,0.9-2,2-2c1.1,0,2,0.9,2,2C101.5,87.6,100.6,88.5,99.5,88.5z"/><path d="M87.5,58h-3.1c-0.3,0-0.5,0.2-0.5,0.5c0,0.3,0.2,0.5,0.5,0.5h3.1c0.3,0,0.5-0.2,0.5-0.5C88,58.2,87.8,58,87.5,58z"/><path d="M87.5,60h-1.9c-0.3,0-0.5,0.2-0.5,0.5c0,0.3,0.2,0.5,0.5,0.5h1.9c0.3,0,0.5-0.2,0.5-0.5C88,60.2,87.8,60,87.5,60z"/><path d="M95.5,58.9h3.1c0.3,0,0.5-0.2,0.5-0.5c0-0.3-0.2-0.5-0.5-0.5h-3.1c-0.3,0-0.5,0.2-0.5,0.5C95,58.7,95.2,58.9,95.5,58.9z"/><path d="M97.4,60h-1.9c-0.3,0-0.5,0.2-0.5,0.5c0,0.3,0.2,0.5,0.5,0.5h1.9c0.3,0,0.5-0.2,0.5-0.5C97.9,60.2,97.7,60,97.4,60z"/><path d="M119.5,46.7c0.3,0,0.5-0.2,0.5-0.5v-1c0-0.3-0.2-0.5-0.5-0.5c-0.3,0-0.5,0.2-0.5,0.5v1C119,46.5,119.2,46.7,119.5,46.7z"/><path d="M128,45.5l-4-1.6l-0.9-6.9c-0.1-0.6-0.5-1.2-1.1-1.4l-18.1-6.3c-0.1,0-0.2,0-0.2,0c-0.4,0-0.7,0.3-0.7,0.7v0.4l-2-1v-1.1   c0-0.6-0.5-1.1-1.1-1.1H78.1c-0.6,0-1.1,0.5-1.1,1.1v2.8l-2,0.3V31c0-0.4-0.2-0.7-0.6-0.7c-0.2,0-0.3,0-0.5,0.1l-13.9,5.2   c-0.7,0.3-0.9,0.8-0.9,1.3l0,7H48c0-0.5-0.5-1-1-1l-20.7,3.7c-0.9,0.1-1.5,0.7-1.6,1.3L23,53.5l-3.1,0c-0.1-0.1-0.2-0.2-0.3-0.2   L18.3,53c-0.2,0-0.4,0.2-0.4,0.4v1.2c0,0.2,0.2,0.4,0.4,0.4l1.2-0.3c0.1,0,0.3-0.1,0.3-0.2l2.8,0L22.2,56c0,0,0,0,0,0H21   c-0.4,0-0.7,0.2-0.8,0.5h-5.3c-0.1-0.1-0.2-0.2-0.3-0.2L13.3,56c-0.2,0-0.4,0.2-0.4,0.4v1.2c0,0.2,0.2,0.4,0.4,0.4l1.2-0.3   c0.1,0,0.3-0.1,0.3-0.2h5.3c0.2,0.3,0.5,0.5,0.8,0.5h6.5l0.3,1.1c0.2,0.5,0.7,0.9,1.2,0.9H32c0.5,0,1.4-0.4,1.9-0.9L34,59h1.1   c0.6,0.9,1.7,1.5,2.8,1.5c1.2,0,2.2-0.6,2.8-1.5H48c0.5,0,1-0.4,1-1V57c0-0.5-0.4-1-1-1h0c0,0,0,0,0,0v-2h11l0,1   c0,0.4,0.3,0.8,0.7,0.9l3.6,4.2c-0.5,0.8-0.8,1.8-0.8,2.9c0,0,0,0,0,0c0,0.1,0,0.1,0,0.2l-0.1,1.3l-3.5,8.6c-0.1,0.3-0.1,0.6,0,0.8   c0.1,0.2,0.2,0.3,0.4,0.4l-4,10.1c-0.7,2.1,0.2,4.4,1.9,5.6l4.1,4.2l-0.2,2.7c-0.2,0.1-0.3,0.3-0.4,0.5l-1.7,3.7   c-0.2,0.4-0.1,0.8,0.1,1.1l0.1,0.2c-2,1.2-2.2,3.6-2.2,3.6v4h3v-3.8c0,0-0.1-1,1-1.6c0.1,0,0.2,0,0.2,0l7.6,0.5c0,0,0,0,0.1,0   c0.2,0,0.4-0.1,0.5-0.1c0.6,0.5,0.5,1.2,0.5,1.2v3.8h3v-1.9l1.1-1.2l-1.1-1c0-0.2-0.1-0.5-0.2-0.8l3.1,3.4l-0.2,1.9   c-0.1,0.5,0.1,1,0.4,1.4l1,1.3l-2.2,2.6c-0.1,0.1-0.2,0.3-0.2,0.5h-1.9l-0.3-1.6c-0.1-0.5-0.4-0.9-0.8-1.2l-1.5-1.1l-0.7-5.2   c-0.1-0.9-0.8-1.5-1.7-1.5h-5.5c-0.7,0-1.3,0.5-1.4,1.3l-0.6,5.4l-1.5,1c-0.4,0.3-0.7,0.7-0.8,1.2l-0.4,1.7H54c-0.6,0-1,0.4-1,1   c0,0.6,0.4,1,1,1h3h0.7h14.7H73h3c0.6,0,1-0.4,1-1c0-0.3-0.1-0.5-0.3-0.7l1.5-1.7l0.4-0.5l9.6-11.1l0.4-0.5l2-2.3   c0.4-0.4,0.3-1.1-0.1-1.4c-0.4-0.4-1.1-0.3-1.4,0.1l-2.2,2.6l-1.5-0.8c-0.4-0.2-1-0.3-1.4-0.2l-1.7,0.5l-4.4-3.1   c-0.6-0.4-1.4-0.3-1.9,0.2l-3.6,4.1c-0.3,0.3-0.4,0.7-0.4,1.1c-0.1-0.2-0.3-0.4-0.5-0.5c0.2-0.3,0.3-0.7,0.2-1l-0.1-0.2l4.7-4.7   c0,0,0,0,0.1-0.1c0.1-0.1,0.2-0.3,0.2-0.5c0.8-0.1,1.2,0.4,1.2,0.4l2.9,2.5l2-2.3l-3-2.6c0,0-1.5-1.1-3.4-0.9   c-0.1-0.3-0.3-0.6-0.6-0.8l-3.7-1.6c-0.4-0.2-0.9-0.1-1.3,0.2l0,0l0.2-2.2c0.4-0.6,0.7-1.3,0.8-2.1l0,0l0-0.3c0-0.1,0-0.2,0-0.3   c0,0,0,0,0-0.1l0.7-10.2c0.3-0.2,0.5-0.5,0.5-0.8l0.6-8.2l5.2-1.3h22.9l0.1,0l-3.1,7.7c-0.1,0.3-0.1,0.6,0,0.8   c0.1,0.2,0.2,0.3,0.4,0.4l-4,10.1c-0.3,1-0.3,2.1,0,3l-0.6,8.9c-0.2,0.1-0.3,0.3-0.4,0.5l-1.7,3.7c-0.2,0.4-0.1,0.8,0.1,1.1   l0.1,0.2c-2,1.2-2.2,3.6-2.2,3.6v4h3v-3.8c0,0-0.1-1,1-1.6c0.1,0,0.2,0,0.2,0l7.6,0.5c0,0,0,0,0.1,0c0.2,0,0.4-0.1,0.5-0.1   c0.6,0.5,0.5,1.2,0.5,1.2v3.8h3v-4c0,0-0.2-1.9-1.5-3.1c0.2-0.3,0.3-0.7,0.2-1l-1.2-3.9c-0.1-0.2-0.1-0.3-0.3-0.4l0.6-8.4l0,0   c0.1-0.2,0.3-0.5,0.4-0.7l3.2-8l0.4,6.1c0,1,0.3,2,0.8,2.8l0.6,8.3c-0.1,0.1-0.2,0.3-0.3,0.4l-1.2,3.9c-0.1,0.3,0,0.7,0.2,1   c-1.4,1.2-1.5,3.1-1.5,3.1v4h3v-3.8c0,0-0.1-0.7,0.5-1.2c0.2,0.1,0.3,0.1,0.5,0.1c0,0,0,0,0.1,0l7.6-0.5c0.1,0,0.2,0,0.2,0   c1.2,0.5,1,1.6,1,1.6v3.8h3v-4c0,0-0.2-2.5-2.2-3.6l0.1-0.2c0.2-0.3,0.3-0.8,0.1-1.1l-1.7-3.7c-0.1-0.2-0.2-0.4-0.4-0.5l-0.6-9.1   c0.1-0.4,0.2-0.8,0.2-1.3l-0.7-10.8c0.2-0.1,0.4-0.2,0.5-0.3c0.2-0.2,0.3-0.5,0.3-0.8L117,68h4.1c0.6,0,1-0.4,1-1V62l3,0   c0.5,0,0.9-0.4,1-0.9l2.7-14.2C128.9,46.4,128.6,45.8,128,45.5z M47,44L47,44l0,7h-3.3c-0.4-2.6-2.2-4.7-4.6-5.5L47,44z M47,52l0,2   l-9,0l0-2H47z M31,47.5c1.6,0,2.9,1,3.3,2.5c0,0-0.1,0-0.1,0h-2.1c-0.3-0.3-0.7-0.5-1.1-0.5c-0.8,0-1.5,0.7-1.5,1.5   c0,0.8,0.7,1.5,1.5,1.5c0,0,0,0,0,0v1l-2.4,0C28,52.9,27.5,52,27.5,51C27.5,49.1,29.1,47.5,31,47.5z M34,52v2h-2v-2H34z M31,50.5   c0,0.1-0.1,0.2-0.1,0.3v0.6c0,0,0,0,0,0c-0.3,0-0.5-0.2-0.5-0.5C30.5,50.7,30.7,50.5,31,50.5C31,50.5,31,50.5,31,50.5z M25.6,48.4   C25.6,48.4,25.6,48.3,25.6,48.4c0.1-0.4,0.4-0.6,0.8-0.6c0,0,0,0,0.1,0l1.9-0.4c-0.6,0.4-1,1-1.4,1.6h-1.6L25.6,48.4z M25.1,50h1.6   c-0.1,0.3-0.1,0.6-0.1,1h-1.7L25.1,50z M24.5,52h2.2c0.1,0.5,0.3,1,0.6,1.5l-3.3,0L24.5,52z M29,59L29,59c-0.1,0-0.2-0.1-0.3-0.2   L28.2,57H29V59z M31,59h-1v-2h1V59z M33.2,58.4c-0.4,0.4-1,0.6-1.2,0.6H32v-2h2.5c0,0,0,0,0,0.1L33.2,58.4z M38,59.4   c-1.4,0-2.5-1.1-2.5-2.5H37v0.8c0,0.1,0.1,0.2,0.2,0.2h1.6c0.1,0,0.2-0.1,0.2-0.2V57h1.5C40.4,58.3,39.3,59.4,38,59.4z M23.3,56   l0.5-1.5l4.6,0c0.8,0.6,1.7,0.9,2.7,0.9c0.7,0,1.4-0.2,2-0.5h1.1c0.5,0,0.9-0.4,0.9-0.9v-1.2c0.3-0.6,0.4-1.2,0.4-1.9   c0-2.1-1.4-3.8-3.3-4.3l3.6-0.7c1.6-0.1,3.6,0.3,4.8,1.4c1.1,0.9,1.8,2.2,2.1,3.6H38c-0.6,0-1,0.5-1,1v2c0,0.6,0.5,1,1,1h9l0,1   L23.3,56z M48,57l0,1h-6.7c0.1-0.3,0.2-0.7,0.2-1h5.5H48z M50,53h-1v-8h1V53z M53,53h-2v-8h2V53z M57,53h-3v-8h3V53z M61.7,106.9   c0-0.2,0.2-0.4,0.4-0.4h5.5c0.4,0,0.7,0.3,0.7,0.6l0.6,4.4H68h-6.4h-0.5L61.7,106.9z M58.2,117l0.5-2.5c0-0.2,0.2-0.4,0.4-0.6   l2-1.3c0.1-0.1,0.3-0.1,0.5-0.1H68c0.4,0,0.8,0.1,1.2,0.4l1.7,1.2c0.2,0.1,0.3,0.3,0.4,0.6l0.5,2.4H58.2z M81.8,102.1l2.3-0.7   c0.2-0.1,0.5,0,0.7,0.1l2.2,1.2L78.2,113l-1.5-1.9c-0.1-0.2-0.2-0.4-0.2-0.6l0.2-2.1c0-0.4,0.2-0.8,0.5-1.1l4.2-4.8   C81.5,102.3,81.6,102.2,81.8,102.1z M73,103l3.6-4.1c0.1-0.2,0.4-0.2,0.5-0.1l3.8,2.7l-0.3,0.4l-4.2,4.8l-0.5,0.6l-2.9-3.3   C72.8,103.6,72.8,103.2,73,103z M78.9,95.3l2.2,1.9L80.4,98l-2.1-1.8c-0.2-0.2-0.8-0.7-1.7-0.7c-0.1,0-0.2,0-0.3,0l-0.1-0.9   C77,94.5,77.9,94.6,78.9,95.3z M124,53h1c0.5,0,1,0.4,1,1V55c0,0.5-0.4,1-1,1h-1V53z M104.5,31.1l17,6c0.1,0,0.1,0.1,0.1,0.2   l1.9,14.3h-19V31.1z M123,53v3h-18.9H103c-0.5,0-1-0.4-1-1v-1.1c0-0.5,0.4-1,1-1h0H123z M106.6,61.9c0.3-1.3,1.3-2.4,2.5-3l6.3,5.3   c-0.4,1.3-1.3,2.4-2.5,3L106.6,61.9z M111.7,67.5c-0.2,0-0.4,0.1-0.6,0.1c-2.5,0-4.5-2-4.6-4.4L111.7,67.5z M110.3,58.5   c0.2,0,0.5-0.1,0.7-0.1c2.5,0,4.5,2,4.6,4.5L110.3,58.5z M101,30.9l2,1v20h0c-1.1,0-2,0.9-2,2V30.9z M94,28h5.9   c0.1,0,0.1,0.1,0.1,0.1V43h-6V28z M99.6,44v8H80.1c-0.1,0-0.1-0.1-0.1-0.1v-7.8c0-0.1,0.1-0.1,0.1-0.1H99.6z M86,28h7v15h-7V28z    M78,28.1c0-0.1,0.1-0.1,0.1-0.1H85v15h-4.9c-0.6,0-1.1,0.5-1.1,1.1v7.8c0,0.6,0.5,1.1,1.1,1.1H100v3h-0.6H78V28.1z M75,55V32.2   l2-0.3V56h-2C75,55.7,75,55.2,75,55z M60.3,36.5L74,31.4L74,52H60l0-15C60,36.8,60,36.7,60.3,36.5z M60,53h14l0,2l-14,0V53z    M69.9,58.9c1.2,0.6,2.1,1.7,2.5,3l-6.3,5.3c-1.2-0.6-2.2-1.7-2.5-3L69.9,58.9z M63.4,62.9c0.1-2.5,2.1-4.5,4.6-4.5   c0.2,0,0.5,0,0.7,0.1L63.4,62.9z M62.8,58h2.8c-0.7,0.3-1.2,0.8-1.7,1.3L62.8,58z M62.5,89.5c0.9,1.2,2.3,2,3.9,2   c1.2,0,2.2-0.4,3.1-1.1l-0.5,6.9l-7.1-0.4L62.5,89.5z M62.5,86.5c0-2.2,1.8-4,4-4c2.2,0,4,1.8,4,4c0,2.2-1.8,4-4,4   C64.3,90.5,62.5,88.7,62.5,86.5z M62,68.1l-0.5,6.1l-1.7-0.7L62,68.1z M60,74.8l1.9,0.8c0.1,0.1,0.2,0.1,0.3,0.1l-0.4,5.7   c-0.2-0.1-0.3-0.1-0.5-0.2c-1.5-0.5-2.9-0.2-4.1,0.6L60,74.8z M56.2,84.7c0.7-2.1,2.9-3.2,5-2.6c0.2,0.1,0.5,0.2,0.7,0.3l-0.1,1.3   c-0.5-0.4-1.1-0.7-1.8-0.7c-1.7,0-3,1.3-3,3c0,1.7,1.3,3,3,3c0.7,0,1.3-0.2,1.8-0.6l-0.1,1c-0.9,0.4-1.9,0.5-2.9,0.2   C56.6,89.1,55.5,86.8,56.2,84.7z M61.6,87.1c-0.4,0.6-1,1-1.7,1c-1.1,0-2-0.9-2-2s0.9-2,2-2c0.8,0,1.4,0.4,1.8,1.1L61.6,86   c0,0.2,0,0.3,0,0.5C61.5,86.7,61.5,86.9,61.6,87.1z M59.4,90.9c0.7,0.1,1.4,0,2.1-0.3l-0.2,2.2L59.4,90.9z M59.6,104.5   c-0.6,0.7-0.6,1.5-0.6,1.7v2.8h-1v-2.9c0.2-1.6,1-2.4,1.8-2.8l0.5,0.7C60,104.1,59.7,104.3,59.6,104.5z M69,104.1c0,0-0.1,0-0.1,0   c0,0,0,0,0,0l-7.6-0.5c0,0-0.1,0-0.1-0.1l-1.2-1.7c-0.1-0.2-0.2-0.4-0.1-0.7c0,0,1.5-3,1.5-3.2c0-0.2,0.2-0.3,0.3-0.3l7.1,0.5   c0.2,0,0.4,0,0.5,0.3l1.1,3.4c0,0.2,0,0.4-0.1,0.6L69,104.1z M71.9,106.1v2.9h-1v-2.8c0-0.3,0-1-0.6-1.7c-0.1-0.1-0.1-0.1-0.2-0.2   l0.6-0.7C71.3,104.1,71.8,104.9,71.9,106.1z M71,92.4c0.2-0.2,0.3-0.3,0.5-0.2l3.3,1.4c0.2,0.1,0.3,0.2,0.3,0.5l0.3,2.1   c0,0,0,0.1,0,0.1c0,0,0,0,0,0l-4.3,4.3L70.3,98c-0.1-0.2-0.1-0.3-0.3-0.4l0.3-4.5L71,92.4z M70.7,83.9c-0.9-1.4-2.4-2.3-4.2-2.3   c-1.5,0-2.9,0.7-3.8,1.8l0.5-7.5l8,0.6L70.7,83.9z M71.6,75.4l-8.9-0.7l0.7-8.8c1,1.6,2.7,2.6,4.7,2.6c1.7,0,3.2-0.8,4.2-2   L71.6,75.4z M68,67.6c-0.2,0-0.4,0-0.6-0.1l5.2-4.4C72.5,65.6,70.5,67.6,68,67.6z M70.4,58h5.8c0.3,0.6,0.7,1.2,1.5,1.5   c0.4,0.2,3.3,1.2,3.8,1.4l0,0c0.1,0,0.3,0.2,0.3,0.3c0.2,0.4,0.7,1.3,0.7,1.3c0,0,0,0.1,0.1,0.1l-9.2,2.3l0.1-0.7   c0-0.1,0-0.1,0-0.2c0-0.3,0.1-0.6,0.1-0.9C73.6,60.8,72.3,58.9,70.4,58z M73.3,66.2l0-0.4l10-2.5c0.1,0.1,0.2,0.2,0.4,0.3   L73.3,66.2z M84.3,61.4c-0.1-0.2-0.5-0.9-0.6-1.1c-0.5-1-1.5-1.3-1.5-1.3s-3.4-1.2-3.8-1.4c-0.2-0.1-0.4-0.3-0.4-0.5V57h21.4h1.6h2   h1.1c-0.1,0.1-0.2,0.1-0.3,0.1c-0.2,0-0.2,0-0.9,0c-0.7,0-1.8,0.7-2.3,1.5c-0.6,1-1.5,2.3-1.8,2.8c-0.3,0.5-0.8,0.6-1,0.6   S86,62,85.4,62C84.5,62,84.4,61.6,84.3,61.4z M97.7,64h0.1c1.2,0,2.2-0.6,2.8-1.6c0.1-0.1,0.3-0.4,0.4-0.6c0.5-0.7,0.9-1.3,1.3-2.1   c0.1-0.3,0.5-0.5,0.7-0.5c0.4,0,0.6,0,0.7,0l0.1,0c0.9,0,1.6-0.4,2-1.1h2.8c-1.9,0.9-3.1,2.8-3.1,5l0.1,1l0.1,2L97.7,64z    M101.6,68.5l4.3,1l0.5,6c0,0.4,0.2,0.7,0.5,0.8l0.1,0.9l-7.6-3.1L101.6,68.5z M92.6,104.5c-0.6,0.7-0.6,1.5-0.6,1.7v2.8h-1v-2.9   c0.2-1.6,1-2.4,1.8-2.8l0.5,0.7C93,104.1,92.8,104.3,92.6,104.5z M104.9,106.1v2.9h-1v-2.8c0-0.3,0-1-0.6-1.7   c-0.1-0.1-0.1-0.1-0.2-0.2l0.6-0.7C104.3,104.1,104.8,104.9,104.9,106.1z M103.6,102.2c0,0,0,0.1,0,0.1l-1.6,1.8c0,0-0.1,0-0.1,0   c0,0,0,0,0,0l-7.6-0.5c0,0-0.1,0-0.1-0.1l-1.4-2c0,0,0-0.1,0-0.1l1.7-3.7c0,0,0.1-0.1,0.1-0.1v-0.4l0,0l0,0.4l7.5,0.4   c0.1,0,0.1,0,0.1,0.1L103.6,102.2z M95.1,96.8l0.5-7.2c0.6,0.7,1.4,1.3,2.4,1.6c1.7,0.5,3.4,0.1,4.7-1l-0.5,6.9L95.1,96.8z    M103.2,87.7c-0.7,2.1-2.9,3.2-5,2.6c-2.1-0.7-3.2-2.9-2.6-5c0.7-2.1,2.9-3.2,5-2.6C102.7,83.4,103.9,85.6,103.2,87.7z M104.2,85.3   c-0.4-1.6-1.6-2.9-3.3-3.5c-1.5-0.5-2.9-0.2-4.1,0.6l2.8-7l7.4,3L104.2,85.3z M107.5,75.4l-0.7-8.8c1,1.2,2.5,1.9,4.2,1.9   c2,0,3.7-1,4.7-2.6l0.7,8.8L107.5,75.4z M108.4,83.9l-0.5-7.4l8-0.6l0.5,7.5c-0.9-1.1-2.3-1.8-3.8-1.8   C110.8,81.6,109.2,82.5,108.4,83.9z M108.6,86.5c0-2.2,1.8-4,4-4c2.2,0,4,1.8,4,4c0,2.2-1.8,4-4,4   C110.4,90.5,108.6,88.7,108.6,86.5z M108.7,104.5c-0.6,0.7-0.6,1.5-0.6,1.7v2.8h-1v-2.9c0.1-1.2,0.6-1.9,1.2-2.4l0.6,0.7   C108.8,104.4,108.8,104.4,108.7,104.5z M121,106.1v2.9h-1v-2.8c0-0.3,0-1-0.6-1.7c-0.2-0.2-0.4-0.4-0.7-0.6l0.5-0.7   C120,103.7,120.9,104.5,121,106.1z M117.3,97.8L117.3,97.8c0.1,0,0.1,0,0.1,0.1l1.7,3.7c0,0,0,0.1,0,0.1l-1.4,2   c0,0-0.1,0.1-0.1,0.1l-7.6,0.5c0,0-0.1,0-0.1,0l-1.6-1.8c0,0,0-0.1,0-0.1l1.2-3.9c0,0,0.1-0.1,0.1-0.1L117.3,97.8z M117,96.8   l-7.1,0.4l-0.5-6.8c0.8,0.7,1.9,1.1,3.1,1.1c1.6,0,3-0.8,3.9-2L117,96.8z M119,67h-2.1l-0.3-4c0-2.2-1.3-4.1-3.1-5h5.6V67z    M121.1,67h-1v-9h1V67z"/></g><text x="0" y="159" fill="#000000" font-size="5px" font-weight="bold" font-family="'Helvetica Neue', Helvetica, Arial-Unicode, Arial, Sans-serif">Created by Nick Bluth</text><text x="0" y="164" fill="#000000" font-size="5px" font-weight="bold" font-family="'Helvetica Neue', Helvetica, Arial-Unicode, Arial, Sans-serif">from the Noun Project</text></svg>